<?xml version="1.0" encoding="utf-8" standalone="no"?>
<!DOCTYPE svg PUBLIC "-//W3C//DTD SVG 1.1//EN"
  "http://www.w3.org/Graphics/SVG/1.1/DTD/svg11.dtd">
<svg xmlns:xlink="http://www.w3.org/1999/xlink" width="623.956172pt" height="312.454984pt" viewBox="0 0 623.956172 312.454984" xmlns="http://www.w3.org/2000/svg" version="1.1">
 <metadata>
  <rdf:RDF xmlns:dc="http://purl.org/dc/elements/1.1/" xmlns:cc="http://creativecommons.org/ns#" xmlns:rdf="http://www.w3.org/1999/02/22-rdf-syntax-ns#">
   <cc:Work>
    <dc:type rdf:resource="http://purl.org/dc/dcmitype/StillImage"/>
    <dc:format>image/svg+xml</dc:format>
    <dc:creator>
     <cc:Agent>
      <dc:title>Matplotlib v3.11.1, https://matplotlib.org/</dc:title>
     </cc:Agent>
    </dc:creator>
   </cc:Work>
  </rdf:RDF>
 </metadata>
 <defs>
  <style type="text/css">*{stroke-linejoin: round; stroke-linecap: butt}</style>
 </defs>
 <g id="figure_1">
  <g id="patch_1">
   <path d="M 0 312.454984 
L 623.956172 312.454984 
L 623.956172 0 
L 0 0 
L 0 312.454984 
z
" style="fill: none"/>
  </g>
  <g id="axes_1">
   <g id="patch_2">
    <path d="M 46.694297 272.254125 
L 325.694297 272.254125 
L 325.694297 28.318125 
L 46.694297 28.318125 
L 46.694297 272.254125 
z
" style="fill: none"/>
   </g>
   <g id="matplotlib.axis_1">
    <g id="xtick_1">
     <g id="line2d_1">
      <path d="M 59.376115 272.254125 
L 59.376115 28.318125 
" clip-path="url(#p69eca6e9b6)" style="fill: none; stroke: #e4e6ea; stroke-linecap: square"/>
     </g>
     <g id="line2d_2">
      <defs>
       <path id="m1d3ef57451" d="M 0 0 
L 0 3.5 
" style="stroke: #6b7078; stroke-width: 0.8"/>
      </defs>
      <g>
       <use xlink:href="#m1d3ef57451" x="59.376115" y="272.254125" style="fill: #6b7078; stroke: #6b7078; stroke-width: 0.8"/>
      </g>
     </g>
     <g id="text_1">
      <text style="font-size: 11px; font-family: 'DejaVu Sans'; text-anchor: middle; fill: #6b7078" x="59.376115" y="287.611547" transform="rotate(-0 59.376115 287.611547)">0.0</text>
     </g>
    </g>
    <g id="xtick_2">
     <g id="line2d_3">
      <path d="M 110.103388 272.254125 
L 110.103388 28.318125 
" clip-path="url(#p69eca6e9b6)" style="fill: none; stroke: #e4e6ea; stroke-linecap: square"/>
     </g>
     <g id="line2d_4">
      <g>
       <use xlink:href="#m1d3ef57451" x="110.103388" y="272.254125" style="fill: #6b7078; stroke: #6b7078; stroke-width: 0.8"/>
      </g>
     </g>
     <g id="text_2">
      <text style="font-size: 11px; font-family: 'DejaVu Sans'; text-anchor: middle; fill: #6b7078" x="110.103388" y="287.611547" transform="rotate(-0 110.103388 287.611547)">0.2</text>
     </g>
    </g>
    <g id="xtick_3">
     <g id="line2d_5">
      <path d="M 160.830661 272.254125 
L 160.830661 28.318125 
" clip-path="url(#p69eca6e9b6)" style="fill: none; stroke: #e4e6ea; stroke-linecap: square"/>
     </g>
     <g id="line2d_6">
      <g>
       <use xlink:href="#m1d3ef57451" x="160.830661" y="272.254125" style="fill: #6b7078; stroke: #6b7078; stroke-width: 0.8"/>
      </g>
     </g>
     <g id="text_3">
      <text style="font-size: 11px; font-family: 'DejaVu Sans'; text-anchor: middle; fill: #6b7078" x="160.830661" y="287.611547" transform="rotate(-0 160.830661 287.611547)">0.4</text>
     </g>
    </g>
    <g id="xtick_4">
     <g id="line2d_7">
      <path d="M 211.557933 272.254125 
L 211.557933 28.318125 
" clip-path="url(#p69eca6e9b6)" style="fill: none; stroke: #e4e6ea; stroke-linecap: square"/>
     </g>
     <g id="line2d_8">
      <g>
       <use xlink:href="#m1d3ef57451" x="211.557933" y="272.254125" style="fill: #6b7078; stroke: #6b7078; stroke-width: 0.8"/>
      </g>
     </g>
     <g id="text_4">
      <text style="font-size: 11px; font-family: 'DejaVu Sans'; text-anchor: middle; fill: #6b7078" x="211.557933" y="287.611547" transform="rotate(-0 211.557933 287.611547)">0.6</text>
     </g>
    </g>
    <g id="xtick_5">
     <g id="line2d_9">
      <path d="M 262.285206 272.254125 
L 262.285206 28.318125 
" clip-path="url(#p69eca6e9b6)" style="fill: none; stroke: #e4e6ea; stroke-linecap: square"/>
     </g>
     <g id="line2d_10">
      <g>
       <use xlink:href="#m1d3ef57451" x="262.285206" y="272.254125" style="fill: #6b7078; stroke: #6b7078; stroke-width: 0.8"/>
      </g>
     </g>
     <g id="text_5">
      <text style="font-size: 11px; font-family: 'DejaVu Sans'; text-anchor: middle; fill: #6b7078" x="262.285206" y="287.611547" transform="rotate(-0 262.285206 287.611547)">0.8</text>
     </g>
    </g>
    <g id="xtick_6">
     <g id="line2d_11">
      <path d="M 313.012479 272.254125 
L 313.012479 28.318125 
" clip-path="url(#p69eca6e9b6)" style="fill: none; stroke: #e4e6ea; stroke-linecap: square"/>
     </g>
     <g id="line2d_12">
      <g>
       <use xlink:href="#m1d3ef57451" x="313.012479" y="272.254125" style="fill: #6b7078; stroke: #6b7078; stroke-width: 0.8"/>
      </g>
     </g>
     <g id="text_6">
      <text style="font-size: 11px; font-family: 'DejaVu Sans'; text-anchor: middle; fill: #6b7078" x="313.012479" y="287.611547" transform="rotate(-0 313.012479 287.611547)">1.0</text>
     </g>
    </g>
    <g id="text_7">
     <text style="font-size: 11px; font-family: 'DejaVu Sans'; text-anchor: middle; fill: #6b7078" x="186.194297" y="302.612406" transform="rotate(-0 186.194297 302.612406)">False positive rate</text>
    </g>
   </g>
   <g id="matplotlib.axis_2">
    <g id="ytick_1">
     <g id="line2d_13">
      <path d="M 46.694297 261.166125 
L 325.694297 261.166125 
" clip-path="url(#p69eca6e9b6)" style="fill: none; stroke: #e4e6ea; stroke-linecap: square"/>
     </g>
     <g id="line2d_14">
      <defs>
       <path id="md67586d767" d="M 0 0 
L -3.5 0 
" style="stroke: #6b7078; stroke-width: 0.8"/>
      </defs>
      <g>
       <use xlink:href="#md67586d767" x="46.694297" y="261.166125" style="fill: #6b7078; stroke: #6b7078; stroke-width: 0.8"/>
      </g>
     </g>
     <g id="text_8">
      <text style="font-size: 11px; font-family: 'DejaVu Sans'; text-anchor: end; fill: #6b7078" x="39.694297" y="265.344836" transform="rotate(-0 39.694297 265.344836)">0.0</text>
     </g>
    </g>
    <g id="ytick_2">
     <g id="line2d_15">
      <path d="M 46.694297 216.814125 
L 325.694297 216.814125 
" clip-path="url(#p69eca6e9b6)" style="fill: none; stroke: #e4e6ea; stroke-linecap: square"/>
     </g>
     <g id="line2d_16">
      <g>
       <use xlink:href="#md67586d767" x="46.694297" y="216.814125" style="fill: #6b7078; stroke: #6b7078; stroke-width: 0.8"/>
      </g>
     </g>
     <g id="text_9">
      <text style="font-size: 11px; font-family: 'DejaVu Sans'; text-anchor: end; fill: #6b7078" x="39.694297" y="220.992836" transform="rotate(-0 39.694297 220.992836)">0.2</text>
     </g>
    </g>
    <g id="ytick_3">
     <g id="line2d_17">
      <path d="M 46.694297 172.462125 
L 325.694297 172.462125 
" clip-path="url(#p69eca6e9b6)" style="fill: none; stroke: #e4e6ea; stroke-linecap: square"/>
     </g>
     <g id="line2d_18">
      <g>
       <use xlink:href="#md67586d767" x="46.694297" y="172.462125" style="fill: #6b7078; stroke: #6b7078; stroke-width: 0.8"/>
      </g>
     </g>
     <g id="text_10">
      <text style="font-size: 11px; font-family: 'DejaVu Sans'; text-anchor: end; fill: #6b7078" x="39.694297" y="176.640836" transform="rotate(-0 39.694297 176.640836)">0.4</text>
     </g>
    </g>
    <g id="ytick_4">
     <g id="line2d_19">
      <path d="M 46.694297 128.110125 
L 325.694297 128.110125 
" clip-path="url(#p69eca6e9b6)" style="fill: none; stroke: #e4e6ea; stroke-linecap: square"/>
     </g>
     <g id="line2d_20">
      <g>
       <use xlink:href="#md67586d767" x="46.694297" y="128.110125" style="fill: #6b7078; stroke: #6b7078; stroke-width: 0.8"/>
      </g>
     </g>
     <g id="text_11">
      <text style="font-size: 11px; font-family: 'DejaVu Sans'; text-anchor: end; fill: #6b7078" x="39.694297" y="132.288836" transform="rotate(-0 39.694297 132.288836)">0.6</text>
     </g>
    </g>
    <g id="ytick_5">
     <g id="line2d_21">
      <path d="M 46.694297 83.758125 
L 325.694297 83.758125 
" clip-path="url(#p69eca6e9b6)" style="fill: none; stroke: #e4e6ea; stroke-linecap: square"/>
     </g>
     <g id="line2d_22">
      <g>
       <use xlink:href="#md67586d767" x="46.694297" y="83.758125" style="fill: #6b7078; stroke: #6b7078; stroke-width: 0.8"/>
      </g>
     </g>
     <g id="text_12">
      <text style="font-size: 11px; font-family: 'DejaVu Sans'; text-anchor: end; fill: #6b7078" x="39.694297" y="87.936836" transform="rotate(-0 39.694297 87.936836)">0.8</text>
     </g>
    </g>
    <g id="ytick_6">
     <g id="line2d_23">
      <path d="M 46.694297 39.406125 
L 325.694297 39.406125 
" clip-path="url(#p69eca6e9b6)" style="fill: none; stroke: #e4e6ea; stroke-linecap: square"/>
     </g>
     <g id="line2d_24">
      <g>
       <use xlink:href="#md67586d767" x="46.694297" y="39.406125" style="fill: #6b7078; stroke: #6b7078; stroke-width: 0.8"/>
      </g>
     </g>
     <g id="text_13">
      <text style="font-size: 11px; font-family: 'DejaVu Sans'; text-anchor: end; fill: #6b7078" x="39.694297" y="43.584836" transform="rotate(-0 39.694297 43.584836)">1.0</text>
     </g>
    </g>
    <g id="text_14">
     <text style="font-size: 11px; font-family: 'DejaVu Sans'; text-anchor: middle; fill: #6b7078" x="15.558281" y="150.286125" transform="rotate(-90 15.558281 150.286125)">True positive rate</text>
    </g>
   </g>
   <g id="line2d_25">
    <path d="M 59.376115 261.166125 
L 313.012479 39.406125 
" clip-path="url(#p69eca6e9b6)" style="fill: none; stroke-dasharray: 3.7,1.6; stroke-dashoffset: 0; stroke: #6b7078"/>
   </g>
   <g id="line2d_26">
    <path d="M 59.376115 261.166125 
L 59.376115 257.530715 
L 61.904052 257.530715 
L 61.904052 250.259895 
L 65.274635 250.259895 
L 65.274635 239.353666 
L 66.117281 239.353666 
L 66.117281 235.718256 
L 70.330509 235.718256 
L 70.330509 232.082846 
L 71.173155 232.082846 
L 71.173155 228.447436 
L 74.543738 228.447436 
L 74.543738 213.905797 
L 75.386384 213.905797 
L 75.386384 206.634977 
L 82.12755 206.634977 
L 82.12755 195.728748 
L 84.655487 195.728748 
L 84.655487 188.457928 
L 86.340778 188.457928 
L 86.340778 184.822518 
L 90.554007 184.822518 
L 90.554007 181.187109 
L 92.239298 181.187109 
L 92.239298 177.551699 
L 94.767236 177.551699 
L 94.767236 170.280879 
L 95.609881 170.280879 
L 95.609881 166.645469 
L 96.452527 166.645469 
L 96.452527 155.73924 
L 101.508401 155.73924 
L 101.508401 152.10383 
L 103.193693 152.10383 
L 103.193693 148.46842 
L 104.036339 148.46842 
L 104.036339 144.83301 
L 108.249567 144.83301 
L 108.249567 141.1976 
L 109.092213 141.1976 
L 109.092213 137.562191 
L 112.462796 137.562191 
L 112.462796 133.926781 
L 120.046607 133.926781 
L 120.046607 130.291371 
L 121.731899 130.291371 
L 121.731899 123.020551 
L 127.630419 123.020551 
L 127.630419 119.385141 
L 129.31571 119.385141 
L 129.31571 115.749732 
L 134.371585 115.749732 
L 134.371585 112.114322 
L 138.584813 112.114322 
L 138.584813 108.478912 
L 141.955396 108.478912 
L 141.955396 97.572682 
L 146.168625 97.572682 
L 146.168625 93.937273 
L 159.650956 93.937273 
L 159.650956 90.301863 
L 162.178894 90.301863 
L 162.178894 86.666453 
L 171.447997 86.666453 
L 171.447997 83.031043 
L 177.346517 83.031043 
L 177.346517 79.395633 
L 179.031808 79.395633 
L 179.031808 75.760223 
L 180.7171 75.760223 
L 180.7171 72.124814 
L 181.559745 72.124814 
L 181.559745 68.489404 
L 188.300911 68.489404 
L 188.300911 64.853994 
L 196.727368 64.853994 
L 196.727368 61.218584 
L 203.468534 61.218584 
L 203.468534 57.583174 
L 213.580283 57.583174 
L 213.580283 53.947764 
L 216.10822 53.947764 
L 216.10822 50.312355 
L 232.118489 50.312355 
L 232.118489 46.676945 
L 235.489072 46.676945 
L 235.489072 43.041535 
L 242.230238 43.041535 
L 242.230238 39.406125 
L 313.012479 39.406125 
" clip-path="url(#p69eca6e9b6)" style="fill: none; stroke: #2a78d6; stroke-width: 2; stroke-linecap: square"/>
   </g>
   <g id="line2d_27">
    <path d="M 59.376115 261.166125 
L 60.218761 261.166125 
L 61.061407 261.166125 
L 61.061407 242.989076 
L 63.589344 242.989076 
L 63.589344 235.718256 
L 66.959927 235.718256 
L 66.959927 232.082846 
L 68.645218 232.082846 
L 68.645218 228.447436 
L 70.330509 228.447436 
L 70.330509 221.176617 
L 71.173155 221.176617 
L 71.173155 217.541207 
L 75.386384 217.541207 
L 75.386384 213.905797 
L 76.22903 213.905797 
L 76.22903 210.270387 
L 77.914321 210.270387 
L 77.914321 202.999568 
L 80.442258 202.999568 
L 80.442258 199.364158 
L 82.12755 199.364158 
L 82.12755 195.728748 
L 83.812841 195.728748 
L 83.812841 188.457928 
L 84.655487 188.457928 
L 84.655487 181.187109 
L 87.183424 181.187109 
L 87.183424 177.551699 
L 88.868715 177.551699 
L 88.868715 170.280879 
L 92.239298 170.280879 
L 92.239298 166.645469 
L 93.081944 166.645469 
L 93.081944 163.010059 
L 97.295173 163.010059 
L 97.295173 159.37465 
L 102.351047 159.37465 
L 102.351047 155.73924 
L 103.193693 155.73924 
L 103.193693 152.10383 
L 104.878984 152.10383 
L 104.878984 144.83301 
L 105.72163 144.83301 
L 105.72163 141.1976 
L 106.564276 141.1976 
L 106.564276 137.562191 
L 114.148087 137.562191 
L 114.148087 133.926781 
L 118.361316 133.926781 
L 118.361316 130.291371 
L 120.046607 130.291371 
L 120.046607 119.385141 
L 125.945127 119.385141 
L 125.945127 112.114322 
L 131.843648 112.114322 
L 131.843648 108.478912 
L 140.270105 108.478912 
L 140.270105 104.843502 
L 145.325979 104.843502 
L 145.325979 97.572682 
L 151.224499 97.572682 
L 151.224499 93.937273 
L 152.067145 93.937273 
L 152.067145 90.301863 
L 159.650956 90.301863 
L 159.650956 83.031043 
L 169.762705 83.031043 
L 169.762705 79.395633 
L 172.290642 79.395633 
L 172.290642 72.124814 
L 174.81858 72.124814 
L 174.81858 68.489404 
L 176.503871 68.489404 
L 176.503871 64.853994 
L 179.031808 64.853994 
L 179.031808 61.218584 
L 201.783243 61.218584 
L 201.783243 57.583174 
L 204.31118 57.583174 
L 204.31118 53.947764 
L 210.2097 53.947764 
L 210.2097 46.676945 
L 244.758175 46.676945 
L 244.758175 43.041535 
L 247.286112 43.041535 
L 247.286112 39.406125 
L 313.012479 39.406125 
" clip-path="url(#p69eca6e9b6)" style="fill: none; stroke: #eb6834; stroke-width: 2; stroke-linecap: square"/>
   </g>
   <g id="patch_3">
    <path d="M 46.694297 272.254125 
L 46.694297 28.318125 
" style="fill: none; stroke: #e4e6ea; stroke-width: 0.8; stroke-linejoin: miter; stroke-linecap: square"/>
   </g>
   <g id="patch_4">
    <path d="M 46.694297 272.254125 
L 325.694297 272.254125 
" style="fill: none; stroke: #e4e6ea; stroke-width: 0.8; stroke-linejoin: miter; stroke-linecap: square"/>
   </g>
   <g id="text_15">
    <text style="font-size: 12px; font-family: 'DejaVu Sans'; text-anchor: start; fill: #14161a" x="46.694297" y="16.318125" transform="rotate(-0 46.694297 16.318125)">Acoustics move AUC by +0.012 [-0.019, +0.042] — positive, but the interval still contains zero</text>
   </g>
   <g id="legend_1">
    <g id="line2d_28">
     <path d="M 132.044219 243.846156 
L 141.544219 243.846156 
L 151.044219 243.846156 
" style="fill: none; stroke: #2a78d6; stroke-width: 2; stroke-linecap: square"/>
    </g>
    <g id="text_16">
     <text style="font-size: 9.5px; font-family: 'DejaVu Sans'; text-anchor: start; fill: #14161a" x="158.644219" y="247.171156" transform="rotate(-0 158.644219 247.171156)">Behaviour only — AUC 0.760</text>
    </g>
    <g id="line2d_29">
     <path d="M 132.044219 258.096898 
L 141.544219 258.096898 
L 151.044219 258.096898 
" style="fill: none; stroke: #eb6834; stroke-width: 2; stroke-linecap: square"/>
    </g>
    <g id="text_17">
     <text style="font-size: 9.5px; font-family: 'DejaVu Sans'; text-anchor: start; fill: #14161a" x="158.644219" y="261.421898" transform="rotate(-0 158.644219 261.421898)">+ acoustic features — AUC 0.772</text>
    </g>
   </g>
  </g>
 </g>
 <defs>
  <clipPath id="p69eca6e9b6">
   <rect x="46.694297" y="28.318125" width="279" height="243.936"/>
  </clipPath>
 </defs>
</svg>
